<svg id="Reciept_Icon" data-name="Reciept Icon" xmlns="http://www.w3.org/2000/svg" width="19.16" height="23.766" viewBox="0 0 19.16 23.766">
  <path id="Vector" d="M11.96,0H2.85A2.857,2.857,0,0,0,0,2.843V16.552A2.857,2.857,0,0,0,2.85,19.4H5.6V18.151H2.85a1.6,1.6,0,0,1-1.6-1.6V2.843a1.6,1.6,0,0,1,1.6-1.6H11.96a1.6,1.6,0,0,1,1.6,1.6V5.6h1.251V2.843A2.85,2.85,0,0,0,11.96,0Z" fill="#14a54d"/>
  <path id="Vector-2" data-name="Vector" d="M11.956,0H2.85A2.85,2.85,0,0,0,0,2.85V16.559a2.85,2.85,0,0,0,2.85,2.854H7.1V18.147H2.85a1.6,1.6,0,0,1-1.6-1.589V2.85a1.6,1.6,0,0,1,1.6-1.6h9.106a1.6,1.6,0,0,1,1.6,1.6v8.666h1.255V2.85A2.854,2.854,0,0,0,11.956,0Z" transform="translate(4.354 4.354)" fill="#14a54d"/>
  <path id="Vector-3" data-name="Vector" d="M.8,6.512a.788.788,0,0,1-.3-.058A.8.8,0,0,1,0,5.707V2.854A2.857,2.857,0,0,1,2.85,0h2.7a.8.8,0,0,1,.58,1.364h0l-4.746,4.9A.794.794,0,0,1,.8,6.512ZM2.85,1.255a1.6,1.6,0,0,0-1.6,1.6V4.613L4.49,1.268Z" transform="translate(12.566 16.981)" fill="#14a54d"/>
  <path id="Vector-4" data-name="Vector" d="M7.309,1.255H.627A.627.627,0,1,1,.627,0H7.309a.627.627,0,0,1,0,1.255Z" transform="translate(7.838 9.317)" fill="#14a54d"/>
  <path id="Vector-5" data-name="Vector" d="M7.356,1.253H.674A.627.627,0,1,1,.674,0H7.356a.627.627,0,1,1,0,1.251Z" transform="translate(7.792 12.8)" fill="#14a54d"/>
</svg>
