<svg xmlns="http://www.w3.org/2000/svg" xmlns:xlink="http://www.w3.org/1999/xlink" width="66.444" height="32.151" viewBox="0 0 66.444 32.151">
  <defs>
    <linearGradient id="linear-gradient" x1="0.5" x2="0.5" y2="1" gradientUnits="objectBoundingBox">
      <stop offset="0" stop-color="#fef014"/>
      <stop offset="1" stop-color="#fea866"/>
    </linearGradient>
  </defs>
  <g id="Twof_Logo" data-name="Twof Logo" transform="translate(0 0)">
    <g id="Group_41" data-name="Group 41">
      <path id="Path_19" data-name="Path 19" d="M2016.415,1406.189a7.461,7.461,0,0,1-5.473-1.9,8.562,8.562,0,0,1,.026-10.775,8.769,8.769,0,0,1,10.893,0,8.562,8.562,0,0,1,.027,10.775A7.462,7.462,0,0,1,2016.415,1406.189Zm0-.275a2.461,2.461,0,0,0,2.579-1.457,26.927,26.927,0,0,0,0-11.1,2.462,2.462,0,0,0-2.579-1.457,2.5,2.5,0,0,0-2.762,1.814,34.378,34.378,0,0,0,0,10.39A2.5,2.5,0,0,0,2016.415,1405.914Z" transform="translate(-1974.608 -1383.612)" fill="#707070"/>
      <path id="Path_20" data-name="Path 20" d="M2114.384,1353.36q-6.412,0-6.539,7.128h-2.274v.3h2.274v10.434a4.315,4.315,0,0,0,.771,2.357,5.417,5.417,0,0,0,4.552,2.362l1.5-.007v-.3q-2.275,0-2.274-2.079v-12.77h2.559v-.3h-2.559v-3.8q0-3.029,1.99-3.029a2.682,2.682,0,0,1,2.729,1.544l.256-.118A2.917,2.917,0,0,0,2114.384,1353.36Z" transform="translate(-2050.925 -1353.36)" fill="#707070"/>
      <path id="Path_21" data-name="Path 21" d="M1854.676,1380a2.273,2.273,0,0,1-2.262,1.43q-1.579,0-1.579-2.817v-6.9c0-.006,0-.01,0-.016,0-2.843-2.921-4.142-2.921-4.142h2.922v-.005h3.684v-.275h-3.684v-6.62H1848.2c0,2.565-.842,6.62-2.526,6.62h-1.158v.275q2.1,0,2.1,1.924v5.36q0,6.872,5.789,6.871a2.5,2.5,0,0,0,2.5-1.594Z" transform="translate(-1844.52 -1359.125)" fill="#707070"/>
      <path id="Path_22" data-name="Path 22" d="M1914.055,1392.874v.275q1.539,0,1.539.884a2.6,2.6,0,0,1-.171.884l-3.037,7.846-2.718-7.024c-.337-.743-1.034-2.88-3.1-2.88l-3.848.016v.275a1.976,1.976,0,0,1,1.6.549,5.385,5.385,0,0,1,.632,1.32l1.009,2.576-2.005,5.171-3.058-7.855q-.71-2.034-1.6-2.035h-5v.275a2.381,2.381,0,0,1,1.263.247,3.49,3.49,0,0,1,.947,1.622l3.858,10.13q.628,1.666.656,1.721a.861.861,0,0,0,.716.3h.848l1.533-4.01,1.97-5.151,2.711,7.137q.626,1.668.653,1.722a.847.847,0,0,0,.711.3h.842l1.537-4.009,3.121-8.14q.657-1.842,1.789-1.869v-.275Z" transform="translate(-1883.881 -1384.59)" fill="#707070"/>
    </g>
    <g id="Group_43" data-name="Group 43" transform="translate(13.583 22.577)">
      <path id="Path_23" data-name="Path 23" d="M2025.219,1478.452a2.823,2.823,0,0,1-2.072-.718,3.24,3.24,0,0,1,.01-4.079,3.319,3.319,0,0,1,4.123,0,2.76,2.76,0,0,1,.727,2.039h-3.984a5.9,5.9,0,0,0,.2,2.133,1.159,1.159,0,0,0,1,.52,2.732,2.732,0,0,0,1.4-.385,2.985,2.985,0,0,0,1.046-1.01l.079.052a3.019,3.019,0,0,1-1.075,1.051A2.836,2.836,0,0,1,2025.219,1478.452Zm-1.2-2.861h2.391a6.765,6.765,0,0,0-.15-1.915,1.039,1.039,0,0,0-1.046-.635.937.937,0,0,0-.976.531A6.237,6.237,0,0,0,2024.024,1475.59Z" transform="translate(-1998.771 -1470.483)" fill="url(#linear-gradient)"/>
      <path id="Path_24" data-name="Path 24" d="M1968.661,1473.041h.1l.09,1.467h-.1a1.94,1.94,0,0,0-.334-.843,1.307,1.307,0,0,0-.553-.445,2.074,2.074,0,0,0-.9-.18,1.046,1.046,0,0,0-.742.255.732.732,0,0,0-.274.535.626.626,0,0,0,.229.53,3.8,3.8,0,0,0,.559.353l1.495.726a1.545,1.545,0,0,1,.934,1.358q0,1.654-2.39,1.654a2.33,2.33,0,0,1-1.524-.552.389.389,0,0,0-.249-.1q-.249,0-.249.583h-.1l.04-1.6h.1a1,1,0,0,0,.11.4,1.926,1.926,0,0,0,.941.978,2.149,2.149,0,0,0,.931.2q1.016,0,1.016-.791a.98.98,0,0,0-.6-.884l-1.4-.666a2.048,2.048,0,0,1-.792-.614,1.34,1.34,0,0,1-.254-.812,1.4,1.4,0,0,1,.613-1.207,2.682,2.682,0,0,1,1.608-.437,2.243,2.243,0,0,1,.822.135,1.55,1.55,0,0,0,.58.13Q1968.631,1473.2,1968.661,1473.041Z" transform="translate(-1953.091 -1470.483)" fill="url(#linear-gradient)"/>
      <g id="Group_42" data-name="Group 42" transform="translate(0 0.059)">
        <path id="Path_25" data-name="Path 25" d="M1914.01,1463.16a.752.752,0,0,0,.563-.245.855.855,0,0,0,0-1.176.77.77,0,0,0-1.126,0,.856.856,0,0,0,0,1.176A.753.753,0,0,0,1914.01,1463.16Z" transform="translate(-1912.416 -1461.495)" fill="url(#linear-gradient)"/>
        <path id="Path_26" data-name="Path 26" d="M1911.8,1478v-3.746q0-.832-.4-.832h-1.992v.1q.8,0,.8.728v3.069a1.517,1.517,0,0,0,.23.642,1.9,1.9,0,0,0,1.628.868l.531,0v-.1Q1911.8,1478.73,1911.8,1478Z" transform="translate(-1909.406 -1470.927)" fill="url(#linear-gradient)"/>
      </g>
      <path id="Path_27" data-name="Path 27" d="M1934.443,1477.816v-2.705q0-1.925-2.589-1.925a1.823,1.823,0,0,0-1.036.375q-.02,0-.145-.161t-.214-.161h-1.992v.1q.8,0,.8.728v3.03a1.521,1.521,0,0,0,.219.658,1.862,1.862,0,0,0,1.593.887l.578,0v-.1q-.8,0-.8-.728v-3.746a3.774,3.774,0,0,0-.02-.4,1.651,1.651,0,0,1,1.016-.385q1,0,1,1.925v1.735c0,.01,0,.017,0,.027a1.522,1.522,0,0,0,.258.836,1.856,1.856,0,0,0,1.557.833l.575,0v-.1Q1934.443,1478.544,1934.443,1477.816Z" transform="translate(-1924.477 -1470.68)" fill="url(#linear-gradient)"/>
      <path id="Path_28" data-name="Path 28" d="M2085.475,1468.537a.861.861,0,0,1-.857.541q-.6,0-.6-1.066v-2.618a1.89,1.89,0,0,0-1.105-1.568h1.106v0h1.395v-.1h-1.395v-2.506h-1c0,.971-.319,2.506-.956,2.506h-.438v.1q.8,0,.8.728v2.029q0,2.6,2.191,2.6a.944.944,0,0,0,.946-.6Z" transform="translate(-2045.578 -1461.214)" fill="url(#linear-gradient)"/>
      <path id="Path_29" data-name="Path 29" d="M1995.316,1471.636a2.494,2.494,0,0,0-1.882-.734,1.825,1.825,0,0,0-1.036.375q-.02,0-.144-.161t-.214-.161h-1.992v.1q.8,0,.8.728v5.028a1.533,1.533,0,0,0,.273.815,1.875,1.875,0,0,0,1.576.818l.542,0v-.1q-.8,0-.8-.728v-1.55a1.745,1.745,0,0,0,1,.344,2.5,2.5,0,0,0,1.887-.729,3.251,3.251,0,0,0,0-4.042Zm-1.006,4.074a.863.863,0,0,1-.876.593,1.623,1.623,0,0,1-1-.375v-4.141a3.707,3.707,0,0,0-.02-.4,1.652,1.652,0,0,1,1.016-.385.873.873,0,0,1,.876.593,9.1,9.1,0,0,1,.12,2.06A9.386,9.386,0,0,1,1994.31,1475.71Z" transform="translate(-1973.166 -1468.875)" fill="url(#linear-gradient)"/>
      <path id="Path_30" data-name="Path 30" d="M2058.04,1476.953a3.065,3.065,0,0,1-1.006,1.02,2.511,2.511,0,0,1-1.344.375,1.029,1.029,0,0,1-1.036-.656,7.319,7.319,0,0,1-.149-2,8.685,8.685,0,0,1,.149-1.967.947.947,0,0,1,1.046-.687c.213,0,1.031.136,1.231.61a.853.853,0,0,0-.47.77.833.833,0,0,0,.814.851.821.821,0,0,0,.781-.611v0a.89.89,0,0,0,.03-.163c0-.009,0-.019,0-.028s0-.03,0-.046v0s0-.009,0-.014a.783.783,0,0,0-.094-.378.847.847,0,0,0-.209-.266c-.025-.024-.05-.047-.078-.071a3.336,3.336,0,0,0-1.018-.56,3.055,3.055,0,0,0-.991-.192,2.811,2.811,0,0,0-2.062.718,2.76,2.76,0,0,0,2.052,4.8,2.591,2.591,0,0,0,1.395-.39,3.173,3.173,0,0,0,1.035-1.056Z" transform="translate(-2022.871 -1470.483)" fill="url(#linear-gradient)"/>
    </g>
  </g>
</svg>
