<svg id="View" xmlns="http://www.w3.org/2000/svg" width="39.25" height="24.671" viewBox="0 0 39.25 24.671">
  <path id="Path_47" data-name="Path 47" d="M-93.282,155.287A17.556,17.556,0,0,0-105.855,150a17.557,17.557,0,0,0-12.573,5.288l-7.052,7.048h0l6.994,6.99a17.557,17.557,0,0,0,12.631,5.346,17.559,17.559,0,0,0,12.631-5.346l6.994-6.99h0Zm-12.573,17.141a10.093,10.093,0,0,1-10.093-10.093,10.093,10.093,0,0,1,10.093-10.093,10.093,10.093,0,0,1,10.093,10.093A10.093,10.093,0,0,1-105.855,172.428Z" transform="translate(125.48 -149.999)" fill="#24a7ad"/>
  <path id="Path_48" data-name="Path 48" d="M-93.994,164a4.471,4.471,0,0,0-.516.032c.048.042.1.075.147.121a2.8,2.8,0,0,1,0,3.965,2.8,2.8,0,0,1-3.965,0c-.046-.046-.078-.1-.121-.147a4.469,4.469,0,0,0-.032.516,4.486,4.486,0,0,0,4.486,4.486,4.486,4.486,0,0,0,4.486-4.486A4.486,4.486,0,0,0-93.994,164Z" transform="translate(113.619 -156.149)" fill="#24a7ad"/>
</svg>
