<svg xmlns="http://www.w3.org/2000/svg" width="113" height="113" viewBox="0 0 113 113">
  <g id="Add_user_Image" data-name="Add user Image" transform="translate(-743 -338)">
    <path id="Rectangle_5_copy_22" data-name="Rectangle 5 copy 22" d="M15,0H96a15,15,0,0,1,15,15V96a15,15,0,0,1-15,15H15A15,15,0,0,1,0,96V15A15,15,0,0,1,15,0Z" transform="translate(744 339)" fill="#f6f5fa" stroke="rgba(255,255,255,0.5)" stroke-linejoin="round" stroke-width="2"/>
    <g id="Group_1" data-name="Group 1">
      <path id="Vector" d="M14.722,29.493A14.726,14.726,0,0,1,9.334,1.064L9.992.821A11.941,11.941,0,0,1,12.625.162,12.6,12.6,0,0,1,14.722,0,14.747,14.747,0,0,1,29.428,13.926v.091a3.758,3.758,0,0,1,0,.587v.162A14.757,14.757,0,0,1,14.722,29.493Zm0-24.935a8.224,8.224,0,0,0-1.4.111,8.579,8.579,0,0,0-1.772.425l-.5.192a10.128,10.128,0,1,0,13.795,9.46v-.638A10.128,10.128,0,0,0,14.722,4.558Z" transform="translate(783.561 363)" fill="#2390cf"/>
      <path id="Vector-2" data-name="Vector" d="M32.694,35.8H20.884A20.925,20.925,0,0,1,0,14.888,14.817,14.817,0,0,1,12.427.233L13.957,0l.79,1.327a13.288,13.288,0,0,0,4.892,4.819A13.288,13.288,0,0,0,26.283,7.88a13.46,13.46,0,0,0,6.685-1.79,13.46,13.46,0,0,0,4.912-4.874L38.6,0l1.448.122A14.939,14.939,0,0,1,53.628,14.888,20.884,20.884,0,0,1,32.694,35.8ZM11.759,5.064A10.017,10.017,0,0,0,7.576,7.586a10.29,10.29,0,0,0-3.038,7.3A16.357,16.357,0,0,0,20.884,31.245H32.694A16.322,16.322,0,0,0,49.02,14.888a10.361,10.361,0,0,0-8.1-10.057,18.079,18.079,0,0,1-6.4,5.569,18.079,18.079,0,0,1-8.236,2.037,17.805,17.805,0,0,1-8.154-1.929A17.805,17.805,0,0,1,11.759,5.064Z" transform="translate(772 391.197)" fill="#2390cf"/>
    </g>
    <path id="Rectangle_5_copy_23" data-name="Rectangle 5 copy 23" d="M10.5,0h3A10.5,10.5,0,0,1,24,10.5v3A10.5,10.5,0,0,1,13.5,24h-3A10.5,10.5,0,0,1,0,13.5v-3A10.5,10.5,0,0,1,10.5,0Z" transform="translate(811 405)" fill="#f6f5fa"/>
    <text id="_" data-name="+" transform="translate(814.883 402.769)" fill="#14a54d" font-size="21.995" font-family="Poppins-Regular, Poppins"><tspan x="0" y="23">+</tspan></text>
  </g>
</svg>
