<svg id="Edit" xmlns="http://www.w3.org/2000/svg" width="23.855" height="23.998" viewBox="0 0 23.855 23.998">
  <path id="Vector" d="M3.119,20.86A3.119,3.119,0,0,1,0,17.741V3.116A3.119,3.119,0,0,1,3.119,0h10.86L11.622,2.359h-8.5a.76.76,0,0,0-.76.756V17.741a.76.76,0,0,0,.76.76H17.745a.76.76,0,0,0,.76-.76V8.924l2.359-2.359V17.741a3.119,3.119,0,0,1-3.119,3.119Z" transform="translate(0 3.138)" fill="#f89747"/>
  <path id="Vector-2" data-name="Vector" d="M14.434.071l3.042,3.039a.321.321,0,0,1-.029.436L3.882,17.085a.346.346,0,0,1-.253.106l-3.375.343A.253.253,0,0,1,0,17.28L.343,13.9a.346.346,0,0,1,.106-.253L14,.1a.321.321,0,0,1,.436-.032Z" transform="translate(6.308 0)" fill="#f89747"/>
</svg>
