<svg id="print_black_24dp" xmlns="http://www.w3.org/2000/svg" width="28.222" height="28.222" viewBox="0 0 28.222 28.222">
  <path id="Path_10" data-name="Path 10" d="M0,0H28.222V28.222H0Z" fill="none"/>
  <path id="Path_11" data-name="Path 11" d="M21.991,8.88H20.815V3H6.7V8.88H5.528A3.523,3.523,0,0,0,2,12.407v7.056H6.7v4.7H20.815v-4.7h4.7V12.407A3.523,3.523,0,0,0,21.991,8.88ZM9.056,5.352h9.407V8.88H9.056Zm9.407,14.111v2.352H9.056v-4.7h9.407Zm2.352-2.352V14.759H6.7v2.352H4.352v-4.7a1.179,1.179,0,0,1,1.176-1.176H21.991a1.179,1.179,0,0,1,1.176,1.176v4.7Z" transform="translate(0.352 0.528)"/>
  <circle id="Ellipse_3" data-name="Ellipse 3" cx="1.176" cy="1.176" r="1.176" transform="translate(19.991 12.347)"/>
</svg>
