<svg xmlns="http://www.w3.org/2000/svg" xmlns:xlink="http://www.w3.org/1999/xlink" width="44.237" height="44.237" viewBox="0 0 44.237 44.237">
  <defs>
    <linearGradient id="linear-gradient" x1="0.5" y1="1" x2="0.5" gradientUnits="objectBoundingBox">
      <stop offset="0" stop-color="#808184"/>
      <stop offset="1" stop-color="#bbbdbf"/>
    </linearGradient>
    <linearGradient id="linear-gradient-2" x1="0.5" y1="1" x2="0.5" gradientUnits="objectBoundingBox">
      <stop offset="0" stop-color="#808184"/>
      <stop offset="0.254" stop-color="#7c7d80"/>
      <stop offset="0.493" stop-color="#717274"/>
      <stop offset="0.726" stop-color="#5f5f61"/>
      <stop offset="0.954" stop-color="#464647"/>
      <stop offset="1" stop-color="#404041"/>
    </linearGradient>
  </defs>
  <g id="Group_311" data-name="Group 311" opacity="0.15">
    <g id="Group_310" data-name="Group 310" transform="translate(0 0)">
      <path id="Path_415" data-name="Path 415" d="M612.572,593.6a22.119,22.119,0,1,0-43.862-.219,48.7,48.7,0,0,1,43.862.219Z" transform="translate(-568.537 -568.537)" fill="url(#linear-gradient)"/>
      <path id="Path_416" data-name="Path 416" d="M591.12,665.727a22.118,22.118,0,0,0,21.917-19.172,48.7,48.7,0,0,0-43.862-.219A22.118,22.118,0,0,0,591.12,665.727Z" transform="translate(-569.002 -621.49)" fill="url(#linear-gradient-2)"/>
    </g>
    <path id="Path_417" data-name="Path 417" d="M601.741,626.892l14.082,8.13a.711.711,0,0,0,1.067-.616v-3.149a.711.711,0,0,1,.711-.711h6.759a.711.711,0,0,0,.711-.711v-7.119a.711.711,0,0,0-.711-.711H617.6a.711.711,0,0,1-.711-.711v-3.149a.711.711,0,0,0-1.067-.616l-14.082,8.13A.711.711,0,0,0,601.741,626.892Z" transform="translate(-592.467 -604.158)" fill="#fff"/>
  </g>
</svg>
