<svg xmlns="http://www.w3.org/2000/svg" width="14.213" height="25.38" viewBox="0 0 14.213 25.38">
  <g id="Group_380" data-name="Group 380" transform="translate(14.213 25.38) rotate(180)">
    <g id="Group_363" data-name="Group 363" transform="translate(0 14.889)">
      <path id="Path_430" data-name="Path 430" d="M3.046,1.523A1.523,1.523,0,1,1,1.523,0,1.523,1.523,0,0,1,3.046,1.523Z" fill="#f8ab27"/>
    </g>
    <g id="Group_364" data-name="Group 364" transform="translate(0 18.612)">
      <path id="Path_431" data-name="Path 431" d="M3.046,1.523A1.523,1.523,0,1,1,1.523,0,1.523,1.523,0,0,1,3.046,1.523Z" fill="#f8ab27"/>
    </g>
    <g id="Group_365" data-name="Group 365" transform="translate(3.722 18.95)">
      <path id="Path_432" data-name="Path 432" d="M3.046,1.523A1.523,1.523,0,1,1,1.523,0,1.523,1.523,0,0,1,3.046,1.523Z" fill="#f8ab27"/>
    </g>
    <g id="Group_366" data-name="Group 366" transform="translate(0 22.334)">
      <path id="Path_433" data-name="Path 433" d="M3.046,1.523A1.523,1.523,0,1,1,1.523,0,1.523,1.523,0,0,1,3.046,1.523Z" fill="#f8ab27"/>
    </g>
    <g id="Group_367" data-name="Group 367" transform="translate(0 0)">
      <path id="Path_434" data-name="Path 434" d="M3.046,1.523A1.523,1.523,0,1,1,1.523,0,1.523,1.523,0,0,1,3.046,1.523Z" fill="#f8ab27"/>
    </g>
    <g id="Group_368" data-name="Group 368" transform="translate(0 11.167)">
      <path id="Path_435" data-name="Path 435" d="M3.046,1.523A1.523,1.523,0,1,1,1.523,0,1.523,1.523,0,0,1,3.046,1.523Z" fill="#f8ab27"/>
    </g>
    <g id="Group_369" data-name="Group 369" transform="translate(3.722 11.336)">
      <path id="Path_436" data-name="Path 436" d="M3.046,1.523A1.523,1.523,0,1,1,1.523,0,1.523,1.523,0,0,1,3.046,1.523Z" fill="#f8ab27"/>
    </g>
    <g id="Group_370" data-name="Group 370" transform="translate(3.722 15.143)">
      <path id="Path_437" data-name="Path 437" d="M3.046,1.523A1.523,1.523,0,1,1,1.523,0,1.523,1.523,0,0,1,3.046,1.523Z" fill="#f8ab27"/>
    </g>
    <g id="Group_371" data-name="Group 371" transform="translate(0 7.445)">
      <path id="Path_438" data-name="Path 438" d="M3.046,1.523A1.523,1.523,0,1,1,1.523,0,1.523,1.523,0,0,1,3.046,1.523Z" fill="#f8ab27"/>
    </g>
    <g id="Group_372" data-name="Group 372" transform="translate(3.722 7.529)">
      <path id="Path_439" data-name="Path 439" d="M3.046,1.523A1.523,1.523,0,1,1,1.523,0,1.523,1.523,0,0,1,3.046,1.523Z" fill="#f8ab27"/>
    </g>
    <g id="Group_373" data-name="Group 373" transform="translate(0 3.722)">
      <path id="Path_440" data-name="Path 440" d="M3.046,1.523A1.523,1.523,0,1,1,1.523,0,1.523,1.523,0,0,1,3.046,1.523Z" fill="#f8ab27"/>
    </g>
    <g id="Group_374" data-name="Group 374" transform="translate(3.722 3.722)">
      <path id="Path_441" data-name="Path 441" d="M3.046,1.523A1.523,1.523,0,1,1,1.523,0,1.523,1.523,0,0,1,3.046,1.523Z" fill="#f8ab27"/>
    </g>
    <g id="Group_375" data-name="Group 375" transform="translate(7.445 11.167)">
      <path id="Path_442" data-name="Path 442" d="M3.046,1.523A1.523,1.523,0,1,1,1.523,0,1.523,1.523,0,0,1,3.046,1.523Z" fill="#f8ab27"/>
    </g>
    <g id="Group_376" data-name="Group 376" transform="translate(7.445 14.889)">
      <path id="Path_443" data-name="Path 443" d="M3.046,1.523A1.523,1.523,0,1,1,1.523,0,1.523,1.523,0,0,1,3.046,1.523Z" fill="#f8ab27"/>
    </g>
    <g id="Group_377" data-name="Group 377" transform="translate(11.167 11.167)">
      <path id="Path_444" data-name="Path 444" d="M3.046,1.523A1.523,1.523,0,1,1,1.523,0,1.523,1.523,0,0,1,3.046,1.523Z" fill="#f8ab27"/>
    </g>
    <g id="Group_378" data-name="Group 378" transform="translate(7.445 7.445)">
      <path id="Path_445" data-name="Path 445" d="M3.046,1.523A1.523,1.523,0,1,1,1.523,0,1.523,1.523,0,0,1,3.046,1.523Z" fill="#f8ab27"/>
    </g>
  </g>
</svg>
