<svg xmlns="http://www.w3.org/2000/svg" width="28" height="28" viewBox="0 0 28 28">
  <path id="info_icon" data-name="info icon" d="M0,14A14,14,0,1,1,14,28,14.016,14.016,0,0,1,0,14Zm2.772,0A11.228,11.228,0,1,0,14,2.772,11.241,11.241,0,0,0,2.772,14Zm7.452,6.538a.9.9,0,0,1-.9-.9v-.972a.9.9,0,0,1,.9-.9H12.6V14h-.934a.9.9,0,0,1-.9-.9v-.973a.9.9,0,0,1,.9-.9H14.5a.9.9,0,0,1,.9.9v5.639h2.39a.9.9,0,0,1,.9.9v.972a.9.9,0,0,1-.9.9ZM12.152,7.7a1.624,1.624,0,1,1,1.625,1.625A1.624,1.624,0,0,1,12.152,7.7Z" fill="#fafafa"/>
</svg>
