<svg id="Group_45" data-name="Group 45" xmlns="http://www.w3.org/2000/svg" width="27.965" height="28.881" viewBox="0 0 27.965 28.881">
  <path id="Path_31" data-name="Path 31" d="M276.192,162.413a5.388,5.388,0,0,0-5.816-2.164l-3.993-3.993-.843.843,2.682,2.681a.979.979,0,1,1-1.384,1.384l-2.681-2.686-.843.847,3.648,3.648a5.395,5.395,0,0,0,5.2,7.881l-2.442-3.557a1.072,1.072,0,0,1,.278-1.489l2.7-1.852a1.079,1.079,0,0,1,1.493.273l2.437,3.557A5.384,5.384,0,0,0,276.192,162.413Zm-16.924-11.183a.963.963,0,0,1,.69.287l2.992,2.992.843-.843-3.883-3.883a5.4,5.4,0,0,0-5.3-7.775l2.476,3.528a1.074,1.074,0,0,1-.264,1.494l-2.676,1.882a1.07,1.07,0,0,1-1.494-.264l-2.48-3.533a5.4,5.4,0,0,0,6.391,7.459l4.161,4.16.847-.843-2.992-2.992a.978.978,0,0,1,0-1.384A.962.962,0,0,1,259.268,151.229Z" transform="translate(-249.177 -141.988)" fill="#fff"/>
  <path id="Rectangle_4" data-name="Rectangle 4" d="M.58,0h0A.579.579,0,0,1,1.16.579V4.622A.579.579,0,0,1,.58,5.2h0A.579.579,0,0,1,0,4.622V.58A.58.58,0,0,1,.58,0Z" transform="translate(9.187 16.019) rotate(-45)" fill="#fff"/>
  <path id="Path_32" data-name="Path 32" d="M260.49,180.567l-6.6,7.2-.813.886a2.51,2.51,0,0,1-.857.569,2.343,2.343,0,0,1-.732.178,2.108,2.108,0,0,1-.249.014,2.565,2.565,0,0,1-1.839-.756,2.6,2.6,0,0,1,0-3.681l.881-.809,7.2-6.6Z" transform="translate(-248.638 -160.53)" fill="#fff"/>
  <path id="Path_33" data-name="Path 33" d="M286.858,150.479l-1.254,1.973-1.111.474-9.963,9.967-1.235-1.235,9.968-9.967.474-1.106,1.973-1.255.1.106-1.455,1.216a.842.842,0,0,0,.114,1.058c.263.259.824.411,1.083.153l1.192-1.494Z" transform="translate(-261.49 -145.815)" fill="#fff"/>
</svg>
