<svg xmlns="http://www.w3.org/2000/svg" width="31.375" height="31.375" viewBox="0 0 31.375 31.375">
  <path id="Path_17" data-name="Path 17" d="M23.917,3H6.486A3.481,3.481,0,0,0,3.017,6.486L3,30.889a3.481,3.481,0,0,0,3.469,3.486h24.42a3.5,3.5,0,0,0,3.486-3.486V13.458ZM6.486,30.889V6.486H22.174V15.2h8.715V30.889Zm6.972-19.174a1.743,1.743,0,1,1-1.743-1.743A1.748,1.748,0,0,1,13.458,11.715Zm0,6.972a1.743,1.743,0,1,1-1.743-1.743A1.748,1.748,0,0,1,13.458,18.688Zm0,6.972a1.743,1.743,0,1,1-1.743-1.743A1.748,1.748,0,0,1,13.458,25.66Z" transform="translate(-3 -3)" fill="#fff"/>
</svg>
