<svg xmlns="http://www.w3.org/2000/svg" width="113" height="113" viewBox="0 0 113 113">
  <g id="Add_Config" data-name="Add Config" transform="translate(-228 -108)">
    <path id="Rectangle_5_copy_22" data-name="Rectangle 5 copy 22" d="M15,0H96a15,15,0,0,1,15,15V96a15,15,0,0,1-15,15H15A15,15,0,0,1,0,96V15A15,15,0,0,1,15,0Z" transform="translate(229 109)" fill="#f6f5fa" stroke="rgba(255,255,255,0.5)" stroke-linejoin="round" stroke-width="2"/>
    <g id="settings_suggest_black_24dp" transform="translate(252.59 129.554)">
      <rect id="Rectangle_3" data-name="Rectangle 3" width="67" height="69" transform="translate(0.41 0.446)" fill="none"/>
      <path id="Path_18" data-name="Path 18" d="M26.5,36.8a3.167,3.167,0,1,1-3.017,3.164A3.1,3.1,0,0,1,26.5,36.8m0-6.327a9.267,9.267,0,0,0-9.052,9.491A9.267,9.267,0,0,0,26.5,49.453a9.267,9.267,0,0,0,9.052-9.491A9.267,9.267,0,0,0,26.5,30.472Zm25.647-6.327,3.289-7.624,7.272-3.448L55.438,9.624,52.149,2,48.86,9.624l-7.272,3.448,7.272,3.448Zm8.388,11.768-2.354-5.441L55.83,35.913l-5.19,2.468,5.19,2.468,2.354,5.441,2.354-5.441,5.19-2.468ZM45.36,39.962c0-.38,0-.791-.03-1.171l5.854-4.65-7.543-13.7-6.759,2.974a19.922,19.922,0,0,0-1.931-1.171l-.905-7.592H18.958l-.905,7.624c-.664.348-1.3.759-1.931,1.171L9.363,20.443,1.82,34.141l5.854,4.65c-.03.38-.03.791-.03,1.171s0,.791.03,1.171L1.82,45.783l7.543,13.7,6.759-2.974a19.921,19.921,0,0,0,1.931,1.171l.905,7.592H34.045l.905-7.624a17.574,17.574,0,0,0,1.931-1.171L43.64,59.45l7.543-13.7L45.33,41.1C45.36,40.753,45.36,40.342,45.36,39.962ZM41.075,51.478l-5.22-2.309a12.573,12.573,0,0,1-6.427,3.891L28.7,58.944H24.3L23.6,53.059a12.573,12.573,0,0,1-6.427-3.891l-5.22,2.309-2.2-4.018,4.5-3.575a14.211,14.211,0,0,1,0-7.782l-4.5-3.575,2.2-4.018,5.22,2.309A12.573,12.573,0,0,1,23.6,26.929l.694-5.947h4.435l.694,5.884a12.573,12.573,0,0,1,6.427,3.891l5.22-2.309,2.2,4.018-4.5,3.575a14.211,14.211,0,0,1,0,7.782l4.5,3.575Z" transform="translate(-1.049 1.201)" fill="#656eb1"/>
    </g>
    <g id="Group_301" data-name="Group 301" transform="translate(-6 -3)">
      <path id="Rectangle_5_copy_23" data-name="Rectangle 5 copy 23" d="M10.5,0h3A10.5,10.5,0,0,1,24,10.5v3A10.5,10.5,0,0,1,13.5,24h-3A10.5,10.5,0,0,1,0,13.5v-3A10.5,10.5,0,0,1,10.5,0Z" transform="translate(296 175)" fill="#f6f5fa"/>
      <text id="_" data-name="+" transform="translate(299.883 172.77)" fill="#14a54d" font-size="21.995" font-family="Poppins-Regular, Poppins"><tspan x="0" y="23">+</tspan></text>
    </g>
  </g>
</svg>
