<svg id="Delete" xmlns="http://www.w3.org/2000/svg" width="17.898" height="24.083" viewBox="0 0 17.898 24.083">
  <path id="Vector" d="M16.419,3.123H0A1.56,1.56,0,0,1,.457,2.017,1.579,1.579,0,0,1,1.57,1.56H5.989L6.77,0H9.665l.778,1.56h4.413a1.566,1.566,0,0,1,1.563,1.563Z" transform="translate(0.74)" fill="#f26689"/>
  <path id="Vector-2" data-name="Vector" d="M14.425,18.957H3.47A2.884,2.884,0,0,1,.72,15.982L0,2.374A2.441,2.441,0,0,1,2.489,0H15.406A2.444,2.444,0,0,1,17.9,2.384v.045l-.724,13.553A2.884,2.884,0,0,1,14.425,18.957ZM1.666,2.358l.724,13.6A1.238,1.238,0,0,0,3.48,17.3H14.425a1.24,1.24,0,0,0,1.094-1.344v-.042l.72-13.556a.788.788,0,0,0-.833-.708H2.489a.788.788,0,0,0-.823.708Z" transform="translate(0 5.126)" fill="#f26689"/>
  <path id="Vector-3" data-name="Vector" d="M.74,11.751a.74.74,0,0,1-.74-.74V.691a.74.74,0,0,1,1.476,0V11.005a.74.74,0,0,1-.737.746Z" transform="translate(8.211 9.237)" fill="#f26689"/>
  <path id="Vector-4" data-name="Vector" d="M.74,11.781H.714A.74.74,0,0,1,0,11.035L.341.714A.737.737,0,0,1,1.077,0H1.1a.737.737,0,0,1,.711.743L1.492,11.067a.74.74,0,0,1-.753.714Z" transform="translate(11.43 9.208)" fill="#f26689"/>
  <path id="Vector-5" data-name="Vector" d="M1.077,11.759a.74.74,0,0,1-.737-.714L0,.722A.74.74,0,0,1,1.476.673l.341,10.34a.74.74,0,0,1-.714.762Z" transform="translate(4.651 9.229)" fill="#f26689"/>
</svg>
