<svg id="Edit" xmlns="http://www.w3.org/2000/svg" width="26.875" height="27.035" viewBox="0 0 26.875 27.035">
  <path id="Vector" d="M3.513,23.5A3.513,3.513,0,0,1,0,19.987V3.51A3.513,3.513,0,0,1,3.513,0H15.747L13.093,2.658H3.513a.856.856,0,0,0-.856.852V19.987a.856.856,0,0,0,.856.856H19.99a.856.856,0,0,0,.856-.856V10.053L23.5,7.4V19.987A3.513,3.513,0,0,1,19.99,23.5Z" transform="translate(0 3.535)" fill="#f89747"/>
  <path id="Vector-2" data-name="Vector" d="M16.26.08,19.687,3.5a.361.361,0,0,1-.032.491L4.373,19.247a.39.39,0,0,1-.285.119l-3.8.386A.285.285,0,0,1,0,19.467l.386-3.8a.39.39,0,0,1,.119-.285L15.769.116A.361.361,0,0,1,16.26.08Z" transform="translate(7.106 0)" fill="#f89747"/>
</svg>
