<svg id="View" xmlns="http://www.w3.org/2000/svg" width="28.846" height="18.132" viewBox="0 0 28.846 18.132">
  <path id="Path_47" data-name="Path 47" d="M-101.817,153.885a12.9,12.9,0,0,0-9.24-3.886,12.9,12.9,0,0,0-9.241,3.886l-5.182,5.179h0l5.14,5.137a12.9,12.9,0,0,0,9.283,3.929,12.9,12.9,0,0,0,9.283-3.929l5.14-5.137h0Zm-9.24,12.6a7.418,7.418,0,0,1-7.417-7.417,7.418,7.418,0,0,1,7.417-7.417,7.418,7.418,0,0,1,7.417,7.417A7.418,7.418,0,0,1-111.057,166.482Z" transform="translate(125.48 -149.999)" fill="#24a7ad"/>
  <path id="Path_48" data-name="Path 48" d="M-95.183,164a3.286,3.286,0,0,0-.379.023c.035.031.075.055.108.089a2.06,2.06,0,0,1,0,2.914,2.06,2.06,0,0,1-2.914,0c-.034-.034-.058-.073-.089-.108a3.286,3.286,0,0,0-.023.379,3.3,3.3,0,0,0,3.3,3.3,3.3,3.3,0,0,0,3.3-3.3A3.3,3.3,0,0,0-95.183,164Z" transform="translate(109.606 -158.23)" fill="#24a7ad"/>
</svg>
