<svg xmlns="http://www.w3.org/2000/svg" width="29.907" height="28.24" viewBox="0 0 29.907 28.24">
  <path id="Path_18" data-name="Path 18" d="M13.37,17.532a1.412,1.412,0,1,1-1.412,1.412,1.416,1.416,0,0,1,1.412-1.412m0-2.824a4.236,4.236,0,1,0,4.236,4.236,4.23,4.23,0,0,0-4.236-4.236Zm12-2.824,1.539-3.4,3.4-1.539L26.912,5.4,25.372,2,23.833,5.4l-3.4,1.539,3.4,1.539ZM29.3,17.137l-1.1-2.429-1.1,2.429-2.429,1.1,2.429,1.1,1.1,2.429,1.1-2.429,2.429-1.1Zm-7.1,1.807c0-.169,0-.353-.014-.522l2.739-2.076-3.53-6.114-3.163,1.327a9.421,9.421,0,0,0-.9-.522L16.9,7.648H9.84l-.424,3.4c-.311.155-.607.339-.9.522L5.35,10.232,1.82,16.346l2.739,2.076c-.014.169-.014.353-.014.522s0,.353.014.522L1.82,21.542l3.53,6.114,3.163-1.327a9.42,9.42,0,0,0,.9.522L9.84,30.24H16.9l.424-3.4a8.311,8.311,0,0,0,.9-.522l3.163,1.327,3.53-6.114-2.739-2.076C22.2,19.3,22.2,19.114,22.2,18.944Zm-2.005,5.14-2.443-1.031A5.94,5.94,0,0,1,14.74,24.79L14.4,27.416H12.34l-.325-2.626a5.94,5.94,0,0,1-3.008-1.737L6.564,24.084,5.534,22.291l2.1-1.6a6.061,6.061,0,0,1,0-3.474l-2.1-1.6,1.031-1.793,2.443,1.031a5.94,5.94,0,0,1,3.008-1.737l.325-2.655h2.076L14.74,13.1a5.94,5.94,0,0,1,3.008,1.737L20.19,13.8,21.221,15.6l-2.1,1.6a6.061,6.061,0,0,1,0,3.474l2.1,1.6Z" transform="translate(-1.82 -2)" fill="#fff"/>
</svg>
