<svg xmlns="http://www.w3.org/2000/svg" width="28" height="28" viewBox="0 0 28 28">
  <path id="dashboard_icon" data-name="dashboard icon" d="M0,14A14,14,0,1,1,14,28,14.015,14.015,0,0,1,0,14Zm2.8,0A11.2,11.2,0,1,0,14,2.8,11.213,11.213,0,0,0,2.8,14Zm10.719,4.86c-.664-.14-1.057-.675-.879-1.2l1.717-5.032a1.309,1.309,0,0,1,1.525-.691c.664.14,1.057.675.879,1.2l-1.717,5.032a1.236,1.236,0,0,1-1.2.724A1.569,1.569,0,0,1,13.519,18.86ZM7.7,14H5.6a8.4,8.4,0,0,1,16.8,0H20.3A6.3,6.3,0,0,0,7.7,14h0Z" fill="#fafafa"/>
</svg>
