<svg xmlns="http://www.w3.org/2000/svg" width="45.312" height="45.104" viewBox="0 0 45.312 45.104">
  <g id="Icon" transform="translate(0.5 0.5)">
    <path id="Stroke_1" data-name="Stroke 1" d="M0,7.67,5.753,0l5.753,7.67Z" transform="translate(21.094 0)" fill="none" stroke="#3b7cff" stroke-linecap="round" stroke-linejoin="round" stroke-miterlimit="10" stroke-width="1"/>
    <path id="Stroke_3" data-name="Stroke 3" d="M26.846,0A26.829,26.829,0,0,1,0,26.666" transform="translate(0 7.85)" fill="none" stroke="#3b7cff" stroke-linecap="round" stroke-linejoin="round" stroke-miterlimit="10" stroke-width="1"/>
    <path id="Stroke_5" data-name="Stroke 5" d="M9.588,4.794A4.794,4.794,0,1,1,4.794,0,4.793,4.793,0,0,1,9.588,4.794Z" transform="translate(0.001 15.34)" fill="none" stroke="#39475b" stroke-linecap="round" stroke-linejoin="round" stroke-miterlimit="10" stroke-width="1"/>
    <path id="Stroke_7" data-name="Stroke 7" d="M9.588,4.794A4.794,4.794,0,1,1,4.794,0,4.793,4.793,0,0,1,9.588,4.794Z" transform="translate(23.012 34.516)" fill="none" stroke="#39475b" stroke-linecap="round" stroke-linejoin="round" stroke-miterlimit="10" stroke-width="1"/>
    <path id="Stroke_9" data-name="Stroke 9" d="M7.67,0,0,7.67" transform="translate(36.434 17.258)" fill="none" stroke="#39475b" stroke-linecap="round" stroke-linejoin="round" stroke-miterlimit="10" stroke-width="1"/>
    <path id="Stroke_11" data-name="Stroke 11" d="M0,0,7.67,7.67" transform="translate(36.434 17.258)" fill="none" stroke="#39475b" stroke-linecap="round" stroke-linejoin="round" stroke-miterlimit="10" stroke-width="1"/>
  </g>
</svg>
