<svg xmlns="http://www.w3.org/2000/svg" width="28" height="21" viewBox="0 0 28 21">
  <path id="team_icon" data-name="team icon" d="M25.2,19.5a5.831,5.831,0,0,0-1.847-4.242A6.448,6.448,0,0,0,19.42,13.52a11.991,11.991,0,0,0-2.064-2.662c.086-.2.169-.409.247-.625a3.267,3.267,0,0,0,1.3.267,3.635,3.635,0,0,0,3.5-3.75A3.635,3.635,0,0,0,18.9,3a3.3,3.3,0,0,0-1.3.267A9.888,9.888,0,0,0,16.2.652,5.885,5.885,0,0,1,18.9,0a6.544,6.544,0,0,1,6.3,6.75,6.928,6.928,0,0,1-1.927,4.859A9,9,0,0,1,28,19.5a1.4,1.4,0,1,1-2.8,0Zm-9.8,0a5.829,5.829,0,0,0-1.847-4.242A6.424,6.424,0,0,0,9.1,13.5a6.163,6.163,0,0,0-6.3,6h0A1.453,1.453,0,0,1,1.4,21,1.454,1.454,0,0,1,0,19.5a9,9,0,0,1,4.727-7.892A6.933,6.933,0,0,1,2.8,6.75,6.544,6.544,0,0,1,9.1,0a6.544,6.544,0,0,1,6.3,6.75,6.93,6.93,0,0,1-1.928,4.859A9,9,0,0,1,18.2,19.5h0a1.4,1.4,0,1,1-2.8,0ZM5.6,6.75A3.635,3.635,0,0,0,9.1,10.5a3.635,3.635,0,0,0,3.5-3.75A3.635,3.635,0,0,0,9.1,3,3.635,3.635,0,0,0,5.6,6.75Z" fill="#eee"/>
</svg>
