<svg xmlns="http://www.w3.org/2000/svg" width="96.139" height="102.024" viewBox="0 0 96.139 102.024">
  <g id="Group_703" data-name="Group 703" transform="translate(1 1)">
    <path id="Rectangle_5_copy_22" data-name="Rectangle 5 copy 22" d="M12.721,0h68.7A12.721,12.721,0,0,1,94.139,12.721v68.7A12.721,12.721,0,0,1,81.417,94.139h-68.7A12.721,12.721,0,0,1,0,81.417v-68.7A12.721,12.721,0,0,1,12.721,0Z" transform="translate(0 0)" fill="#f6f5fa" stroke="rgba(255,255,255,0.5)" stroke-linejoin="round" stroke-width="2"/>
    <g id="Group_279" data-name="Group 279" transform="translate(19.334 21.088)">
      <path id="Path_65" data-name="Path 65" d="M126.849,58V32.6l-5.545,2.24v20.91l.527.217Z" transform="translate(-112.495 -28.936)" fill="#038fd7"/>
      <path id="Path_66" data-name="Path 66" d="M136.06,58.04V73.8q2.043-.136,4.112-.151V48.162l1.463-.59,4.684-1.9.761-.309.245-.1,2.212-.895,4.439-1.8.866-.345V32.907L140.23,27,133.8,29.6V57.128l.8.321Z" transform="translate(-116.812 -27)" fill="#038fd7"/>
      <path id="Path_67" data-name="Path 67" d="M151.68,84.976V58.92l-4.568,1.848V84.694C148.647,84.736,150.169,84.833,151.68,84.976Z" transform="translate(-121.412 -38.028)" fill="#038fd7"/>
      <path id="Path_68" data-name="Path 68" d="M175.449,88.329h.053V59.108l-12.341-4.995-.011.005-5.3,2.147V83.587A69.134,69.134,0,0,1,175.449,88.329Z" transform="translate(-125.12 -36.367)" fill="#038fd7"/>
      <path id="Path_69" data-name="Path 69" d="M110.238,93.775V75.363l-2.392.965V94.6Q109.032,94.166,110.238,93.775Z" transform="translate(-107.846 -43.709)" fill="#038fd7"/>
      <path id="Path_70" data-name="Path 70" d="M127.253,89.4V75.032L124.7,74l-5.544-2.246-.351-.14-3.726,1.509V91.753A68.736,68.736,0,0,1,127.253,89.4Z" transform="translate(-110.344 -42.412)" fill="#038fd7"/>
    </g>
    <g id="Group_280" data-name="Group 280" transform="translate(49.409 50.024)">
      <path id="Rectangle_5_copy_23" data-name="Rectangle 5 copy 23" d="M13.908,0h3.974A13.908,13.908,0,0,1,31.789,13.908v3.974A13.908,13.908,0,0,1,17.881,31.789H13.908A13.908,13.908,0,0,1,0,17.881V13.908A13.908,13.908,0,0,1,13.908,0Z" transform="translate(0 0)" fill="#f6f5fa"/>
      <text id="_" data-name="+" transform="translate(5.298 0)" fill="#14a54d" font-size="36" font-family="Poppins-Regular, Poppins"><tspan x="0" y="38">+</tspan></text>
    </g>
  </g>
</svg>
