<svg xmlns="http://www.w3.org/2000/svg" width="14.8" height="15.124" viewBox="0 0 14.8 15.124">
  <g id="AZ" transform="translate(-1403.281 -257.686)">
    <path id="Vector" d="M4.084,14.977a1.168,1.168,0,0,1-.821-.345L.345,11.722a1.173,1.173,0,0,1,.821-2h.686V.821A.821.821,0,0,1,2.673,0H5.31A.821.821,0,0,1,6.13.821v8.9h.875a1.173,1.173,0,0,1,.821,2l-2.91,2.91a1.168,1.168,0,0,1-.831.345ZM1.308,10.948l2.776,2.773L6.86,10.948H4.888V1.239h-1.8v9.709Z" transform="translate(1409.91 257.686)" fill="#6b6f81"/>
    <path id="Vector-2" data-name="Vector" d="M3.506,5.035H1.729a.112.112,0,0,0-.109.082L1.3,6.168A.112.112,0,0,1,1.2,6.25H.115A.115.115,0,0,1,.006,6.1L1.964.082A.118.118,0,0,1,2.073,0H3.189A.112.112,0,0,1,3.3.079L5.265,6.1a.115.115,0,0,1-.109.15H4.04a.118.118,0,0,1-.112-.082L3.616,5.117a.115.115,0,0,0-.109-.082ZM3.165,3.583,2.727,2.1a.115.115,0,0,0-.222,0l-.438,1.48a.115.115,0,0,0,.112.148h.875a.115.115,0,0,0,.109-.148Z" transform="translate(1403.281 257.967)" fill="#6b6f81"/>
    <path id="Vector-3" data-name="Vector" d="M4.127,4.967V6.14a.115.115,0,0,1-.115.115H.115A.115.115,0,0,1,0,6.14V5.18a.1.1,0,0,1,.019-.06L2.207,1.564a.115.115,0,0,0-.1-.175H.167a.115.115,0,0,1-.115-.115V.115A.115.115,0,0,1,.167,0H3.914a.115.115,0,0,1,.115.115v.96a.093.093,0,0,1-.019.06L1.822,4.677a.115.115,0,0,0,.1.175h2.1a.115.115,0,0,1,.107.115Z" transform="translate(1403.555 266.555)" fill="#6b6f81"/>
  </g>
</svg>
