<svg id="Group_25" data-name="Group 25" xmlns="http://www.w3.org/2000/svg" width="21.533" height="21.662" viewBox="0 0 21.533 21.662">
  <path id="Vector" d="M2.815,18.829A2.815,2.815,0,0,1,0,16.014V2.812A2.815,2.815,0,0,1,2.815,0h9.8L10.491,2.129H2.815a.686.686,0,0,0-.686.683v13.2a.686.686,0,0,0,.686.686h13.2a.686.686,0,0,0,.686-.686V8.055l2.129-2.129V16.014a2.815,2.815,0,0,1-2.815,2.815Z" transform="translate(0 2.833)" fill="#f89747"/>
  <path id="Vector-2" data-name="Vector" d="M13.028.064l2.746,2.743a.289.289,0,0,1-.026.393L3.5,15.421a.312.312,0,0,1-.229.1l-3.047.31A.229.229,0,0,1,0,15.6l.31-3.047a.312.312,0,0,1,.1-.229L12.635.093a.289.289,0,0,1,.393-.029Z" transform="translate(5.694 0)" fill="#f89747"/>
</svg>
