<svg xmlns="http://www.w3.org/2000/svg" width="14.839" height="12.085" viewBox="0 0 14.839 12.085">
  <g id="Upload" transform="translate(0)">
    <path id="Vector" d="M11.135,3.687a3.687,3.687,0,0,0-7.374,0,3.69,3.69,0,1,0-.141,7.379.868.868,0,0,0,.141,0H5.527V9.93H3.655a2.555,2.555,0,0,1,.106-5.108H4.9V3.687a2.551,2.551,0,0,1,5.1,0V4.823h1.136a2.559,2.559,0,0,1,.2,5.11H9.479v1.136h1.938a3.695,3.695,0,0,0-.283-7.379Z" transform="translate(0)" fill="#2ca1dd"/>
    <path id="Vector-2" data-name="Vector" d="M.959,6.4V1.9a.177.177,0,0,0-.177-.177H.177a.177.177,0,0,1-.126-.3L1.416.054a.174.174,0,0,1,.252,0L3.033,1.422a.177.177,0,0,1-.126.3H2.3a.177.177,0,0,0-.177.177V6.4a.177.177,0,0,1-.177.177H1.136A.177.177,0,0,1,.959,6.4Z" transform="translate(5.906 5.505)" fill="#2ca1dd"/>
  </g>
</svg>
