<svg xmlns="http://www.w3.org/2000/svg" width="32.831" height="25.336" viewBox="0 0 32.831 25.336">
  <path id="Garage" d="M308.155,220.909a1.5,1.5,0,0,0-1.122-.5l.662-.03-8.308.374v.018l-.2-.009-.224.01v-.02l-8.308-.374.662.03a1.5,1.5,0,0,0-1.121.5,19.383,19.383,0,0,0-3.017,5.232l12.005.648,1.153-.062.216.345.233.372.581.928.582.928.581.928.582.928.219.35-.638,1.2-1.025,1.934-.161.3-.344.013-2.187.078-1.361.049-.22-.351-.581-.928-.581-.928-.581-.928-.582-.927-.581-.928-.053-.085c-.023.053-.045.107-.067.16a6.016,6.016,0,0,0-.389,1.536,5.954,5.954,0,0,0-.009,1.3,5.92,5.92,0,0,0,.658,2.172q.1.2.223.388a6.068,6.068,0,0,0,.374.53,5.917,5.917,0,0,0,1.739,1.495,6,6,0,0,0,2.775.775l.108,0c.062,0,.124,0,.186,0,.1,0,.19-.006.285-.012l.059,0,.018-.012a23.3,23.3,0,0,0,2.018,2.752c-.958.049-1.99.076-3.03.082h-.421v0c-3.538-.02-6.976-.286-7.729-.8-.818.9-2.233,1.084-3.8.842v1.723a.368.368,0,0,1-.363.37h-3.946a.368.368,0,0,1-.363-.37V230.862a1.494,1.494,0,0,1,.243-.82c.723-.835,2.835-3.2,3.245-3.7-5.538-.131-3.072-3.526.852-2.4a24.035,24.035,0,0,1,2.75-4.463,1.5,1.5,0,0,1,1.073-.452h.48a4.556,4.556,0,0,1,2.019-.593,23.491,23.491,0,0,1,5.8-.465,23.211,23.211,0,0,1,5.707.466,4.555,4.555,0,0,1,2.019.594h.475a1.511,1.511,0,0,1,1.072.443,24.048,24.048,0,0,1,2.757,4.472c3.923-1.128,6.389,2.267.852,2.4.41.5,2.522,2.865,3.245,3.7a1.494,1.494,0,0,1,.243.82v9.247a2.112,2.112,0,0,1-2.112,2.112c-2.964,0-6.98-4.618-8.379-6.852h0l0-.008h0c.047-.083.093-.167.136-.252.028-.055.056-.111.082-.167.016-.032.031-.065.045-.1a5.993,5.993,0,0,0,.512-2.835,5.968,5.968,0,0,0-.9-2.784c-.08-.128-.164-.251-.251-.37a5.941,5.941,0,0,0-1.667-1.54,6,6,0,0,0-1.172-.557q-.156-.054-.314-.1l9.605-.519a19.387,19.387,0,0,0-3.016-5.231Zm-18.042-1.769.086-.11Z" transform="translate(-282.761 -217.968)" fill="#fff" fill-rule="evenodd"/>
</svg>
