<svg xmlns="http://www.w3.org/2000/svg" width="27.361" height="26.509" viewBox="0 0 27.361 26.509">
  <g id="Inspection_Card_Icons" data-name="Inspection Card Icons" transform="translate(0)">
    <g id="Group_203" data-name="Group 203" transform="translate(3.996)">
      <path id="Path_59" data-name="Path 59" d="M837.982,3240.483a8.832,8.832,0,0,1-2.185,1.634l-.5-.942a7.757,7.757,0,0,0,1.922-1.438,8.059,8.059,0,0,0,0-11.213,7.624,7.624,0,0,0-10.949,0,8.069,8.069,0,0,0-2.18,6.835l-1.054.161a9.143,9.143,0,0,1,2.472-7.743,8.693,8.693,0,0,1,12.472,0A9.13,9.13,0,0,1,837.982,3240.483Z" transform="translate(-822.934 -3225.139)" fill="#fff"/>
    </g>
    <path id="Path_60" data-name="Path 60" d="M887.335,3295.694a.533.533,0,0,1-.53-.489,7.3,7.3,0,0,1,2.046-5.718,7.094,7.094,0,0,1,1.473-1.155.533.533,0,1,1,.54.918,6.068,6.068,0,0,0-1.252.983,6.231,6.231,0,0,0-1.745,4.883.533.533,0,0,1-.487.575Z" transform="translate(-880.095 -3285.602)" fill="#fff"/>
    <path id="Path_61" data-name="Path 61" d="M1182.481,3565.671l-4.309-4.629.78-.727,4.309,4.63a1.3,1.3,0,1,0,1.742-1.922l-5.03-3.835.646-.847,5.03,3.834a2.367,2.367,0,1,1-3.168,3.5Z" transform="translate(-1159.222 -3544.315)" fill="#fff"/>
    <g id="Group_205" data-name="Group 205" transform="translate(0 11.86)">
      <g id="Group_204" data-name="Group 204" transform="translate(0 0)">
        <path id="Path_62" data-name="Path 62" d="M742.018,3515.028l-1.282-.543c0-.091,0-.453,0-.552l1.311-.54a1.074,1.074,0,0,0,.582-1.4l-.552-1.337a1.069,1.069,0,0,0-1.4-.583l-1.322.534c-.124-.14-.258-.273-.4-.407l.531-1.281a1.07,1.07,0,0,0-.579-1.4l-1.338-.553a1.067,1.067,0,0,0-1.4.579l-.543,1.284c-.183-.01-.357-.007-.563,0l-.532-1.282a1.069,1.069,0,0,0-1.4-.579l-1.337.553a1.07,1.07,0,0,0-.579,1.4l.524,1.291c-.135.122-.267.255-.4.4l-1.282-.531a1.069,1.069,0,0,0-1.4.58l-.554,1.338a1.07,1.07,0,0,0,.579,1.4l1.285.544c0,.091,0,.453,0,.552l-1.312.541a1.071,1.071,0,0,0-.582,1.4l.552,1.337a1.07,1.07,0,0,0,1.4.583l1.322-.534c.125.14.258.273.4.405l-.531,1.282a1.073,1.073,0,0,0,.58,1.4l1.337.554a1.068,1.068,0,0,0,1.4-.58l.543-1.282c.183.008.357.007.563,0l.531,1.281a1.066,1.066,0,0,0,1.4.58l1.338-.554a1.07,1.07,0,0,0,.579-1.4l-.524-1.291c.136-.122.267-.252.4-.4l1.281.531a1.07,1.07,0,0,0,1.4-.58l.554-1.336A1.069,1.069,0,0,0,742.018,3515.028Zm-4.86,5.437-.53-1.282a1.072,1.072,0,0,0-.994-.66c-.009,0-.355.01-.5,0a1.071,1.071,0,0,0-1.05.659l-.536,1.284-1.34-.56.53-1.282a1.075,1.075,0,0,0-.278-1.21,3.939,3.939,0,0,1-.315-.317,1.093,1.093,0,0,0-1.208-.28l-1.317.539-.549-1.344,1.312-.541a1.073,1.073,0,0,0,.66-1.049c0-.072,0-.362,0-.436a1.078,1.078,0,0,0-.659-1.05l-1.286-.537.559-1.34,1.284.532a1.093,1.093,0,0,0,1.209-.278,4.313,4.313,0,0,1,.312-.312,1.079,1.079,0,0,0,.277-1.208l-.529-1.288,1.342-.55.531,1.281a1.071,1.071,0,0,0,.994.66h.555a1.073,1.073,0,0,0,1-.66l.536-1.284,1.34.559-.531,1.282a1.078,1.078,0,0,0,.278,1.21,4.079,4.079,0,0,1,.316.316,1.093,1.093,0,0,0,1.208.281l1.317-.538.55,1.345-1.311.54a1.077,1.077,0,0,0-.66,1.051c0,.07,0,.36,0,.432a1.079,1.079,0,0,0,.659,1.051l1.284.537-.56,1.339-1.281-.531a1.092,1.092,0,0,0-1.208.277,4.228,4.228,0,0,1-.311.311,1.074,1.074,0,0,0-.28,1.21l.529,1.287-1.338.554h0Z" transform="translate(-728 -3506.886)" fill="#fff"/>
      </g>
      <path id="Path_63" data-name="Path 63" d="M841.168,3622.013a2.706,2.706,0,1,1,2.706-2.706A2.709,2.709,0,0,1,841.168,3622.013Zm0-4.345a1.64,1.64,0,1,0,1.64,1.64A1.642,1.642,0,0,0,841.168,3617.668Z" transform="translate(-833.812 -3611.983)" fill="#fff"/>
    </g>
  </g>
</svg>
