<svg xmlns="http://www.w3.org/2000/svg" width="17" height="17" viewBox="0 0 17 17">
  <path id="Vector" d="M16.659-15.12,11.541-10a6.358,6.358,0,0,1,1.1,4.473,6.354,6.354,0,0,1-2.211,4.039A6.341,6.341,0,0,1,6.069-.006,6.342,6.342,0,0,1,1.858-1.861,6.356,6.356,0,0,1,.006-6.076a6.357,6.357,0,0,1,1.48-4.361A6.343,6.343,0,0,1,5.52-12.651a6.34,6.34,0,0,1,4.468,1.1l5.118-5.121A1.109,1.109,0,0,1,15.891-17a1.109,1.109,0,0,1,.785.325,1.111,1.111,0,0,1,.325.785,1.111,1.111,0,0,1-.325.785ZM9.278-9.289a4.147,4.147,0,0,0-2.124-1.136,4.144,4.144,0,0,0-2.4.237A4.15,4.15,0,0,0,2.9-8.659a4.156,4.156,0,0,0-.7,2.307,4.156,4.156,0,0,0,.7,2.307,4.15,4.15,0,0,0,1.862,1.53,4.144,4.144,0,0,0,2.4.237A4.147,4.147,0,0,0,9.278-3.414,4.165,4.165,0,0,0,10.49-6.351,4.165,4.165,0,0,0,9.278-9.289Z" transform="translate(17) rotate(180)" fill="#08a045"/>
</svg>
